<svg xmlns="http://www.w3.org/2000/svg" viewBox="0 0 520 400" fill="none" role="img" aria-label="Web development illustration">
  <defs>
    <linearGradient id="ac" x1="0" y1="0" x2="1" y2="1">
      <stop offset="0" stop-color="#1ab0ff"/>
      <stop offset="1" stop-color="#1592d4"/>
    </linearGradient>
    <radialGradient id="gl" cx="0.72" cy="0.22" r="0.85">
      <stop offset="0" stop-color="#1ab0ff" stop-opacity="0.4"/>
      <stop offset="1" stop-color="#1ab0ff" stop-opacity="0"/>
    </radialGradient>
  </defs>
  <rect width="520" height="400" fill="url(#gl)"/>
  <rect x="70" y="64" width="380" height="272" rx="18" fill="#0c2138" stroke="#ffffff" stroke-opacity="0.12"/>
  <path d="M70 82a18 18 0 0 1 18-18h344a18 18 0 0 1 18 18v24H70z" fill="#ffffff" fill-opacity="0.05"/>
  <circle cx="94" cy="85" r="5" fill="#ff5f57"/>
  <circle cx="112" cy="85" r="5" fill="#febc2e"/>
  <circle cx="130" cy="85" r="5" fill="#28c840"/>
  <rect x="178" y="78" width="200" height="14" rx="7" fill="#ffffff" fill-opacity="0.08"/>
  <rect x="90" y="126" width="92" height="186" rx="10" fill="#ffffff" fill-opacity="0.05"/>
  <rect x="106" y="146" width="62" height="10" rx="5" fill="#ffffff" fill-opacity="0.2"/>
  <rect x="106" y="168" width="50" height="10" rx="5" fill="#ffffff" fill-opacity="0.12"/>
  <rect x="106" y="190" width="58" height="10" rx="5" fill="#ffffff" fill-opacity="0.12"/>
  <rect x="106" y="212" width="44" height="10" rx="5" fill="#ffffff" fill-opacity="0.12"/>
  <rect x="198" y="126" width="232" height="74" rx="12" fill="url(#ac)"/>
  <path d="M232 150l-14 13 14 13M268 150l14 13-14 13" stroke="#ffffff" stroke-opacity="0.9" stroke-width="5" stroke-linecap="round" stroke-linejoin="round"/>
  <rect x="198" y="214" width="110" height="98" rx="12" fill="#ffffff" fill-opacity="0.06"/>
  <rect x="320" y="214" width="110" height="98" rx="12" fill="#ffffff" fill-opacity="0.06"/>
  <rect x="216" y="236" width="60" height="9" rx="4.5" fill="#ffffff" fill-opacity="0.18"/>
  <rect x="216" y="254" width="74" height="9" rx="4.5" fill="#ffffff" fill-opacity="0.1"/>
  <rect x="338" y="236" width="60" height="9" rx="4.5" fill="#ffffff" fill-opacity="0.18"/>
  <rect x="338" y="254" width="74" height="9" rx="4.5" fill="#ffffff" fill-opacity="0.1"/>
</svg>
